<?xml version="1.0" encoding="utf-8"?>
<!-- Generator: Adobe Illustrator 20.1.0, SVG Export Plug-In . SVG Version: 6.00 Build 0)  -->
<svg version="1.1" id="Ebene_1" xmlns="http://www.w3.org/2000/svg" xmlns:xlink="http://www.w3.org/1999/xlink" x="0px" y="0px"
	 viewBox="0 0 1024 1024" style="enable-background:new 0 0 1024 1024;" xml:space="preserve">
<style type="text/css">
	.st0{fill:#3F51B5;}
	.st1{fill-rule:evenodd;clip-rule:evenodd;fill:#3F51B5;}
</style>
<g>
	<g>
		<g>
			<path class="st0" d="M990.5,428.9l-36.6-6.1c-33.8-5.7-62-28.5-75-60.2c-0.5-1.3-1.1-2.6-1.6-3.9c-13.4-31.6-9.6-67.9,10.2-95.8
				l21.1-29.7c10.3-14.5,8.7-34.1-3.9-46.7L871.3,153l-33.5-33.3c-12.6-11.4-32.2-13-46.5-2.9l-29.3,21
				c-27.9,20-64.2,23.8-95.8,10.5c-1.3-0.5-2.5-1.1-3.8-1.6c-31.7-12.9-54.6-41.1-60.4-74.8l-6.2-36.3C592.7,18,577.6,5.4,560.2,5.4
				H466c-17.6,0-32.7,12.6-35.6,30.2l-6.1,36.1c-5.7,33.7-28.4,61.9-60,74.8c-2.2,0.9-4.4,1.8-6.6,2.8c-31.6,13.6-68,9.9-96-10
				l-28.5-20.2c-14.5-10.3-34.1-8.7-46.7,3.9l-33.3,33.7l-33.5,33.5c-12.4,12.4-14.1,32.2-3.9,46.7l21.9,31
				c19.6,27.6,23.5,63.3,10.6,94.6c-0.4,1-0.8,2.1-1.3,3.1c-13,32.4-41.7,55.9-76.2,61.3l-34.7,5.5C18.7,435.5,6.1,450.6,6.1,468
				v94.2c0,17.6,12.6,32.7,30.2,35.6l37.1,6.2c33.6,5.6,61.8,28.3,74.8,59.8c0.5,1.2,1,2.4,1.5,3.5c13.5,31.7,9.9,68.1-10,96.2
				l-20.4,28.8c-10.3,14.5-8.7,34.1,3.9,46.7l33.5,33.5l33.5,33.5c12.4,12.4,32.2,14.1,46.7,3.9l31.4-22.2
				c27.5-19.5,63.1-23.5,94.3-10.8c1.1,0.5,2.3,0.9,3.4,1.4c32.3,12.9,55.9,41.2,61.7,75.5l5.9,34.8c3.1,17.6,18.2,30.2,35.5,30.2
				h94.2c17.6,0,32.4-12.6,35.6-30.2l6.2-37.1c5.7-33.8,28.6-62,60.3-75.1c0.3-0.1,0.7-0.3,1-0.4c31.6-13.2,67.7-9.5,95.7,10.3
				l29.9,21.2c14.5,10.3,34.1,8.7,46.7-3.9l33.5-33.5l33.5-33.5c12.4-12.4,14.1-32.2,3.9-46.7l-21.1-29.5
				c-20-27.9-23.8-64.2-10.5-95.8c0.5-1.3,1-2.5,1.6-3.8c12.9-31.7,41.1-54.6,74.8-60.4l36.3-6.2c17.6-3.1,30.2-18.2,30.2-35.6
				v-94.2C1020.7,446.9,1008.1,432,990.5,428.9L990.5,428.9z M515.4,804C355,804,224.2,673.2,224.2,512.8
				c0-160.4,130.8-291.2,291.2-291.2c160.4-1.7,291.2,129.2,291.2,291.2C806.6,673.2,675.7,804,515.4,804L515.4,804z M515.4,804"/>
		</g>
		<g>
			<g>
				<path class="st1" d="M587.3,309.1c-55.2-29.5-122.6-18.8-170.7,20c-48,38.8-50.7,106.5-30.7,154.6c20,48,45.1,75.5,53.4,100
					s5.4,23.9,9,31c3.6,7.2,23.9,20.9,28.6-4.8c4.8-25.7-16.1-55.8-33.1-86.5c-17-30.7-37.6-63.9-36.4-97.9
					c1.2-34,24.8-99.6,110.7-100.3c85.9-0.6,102.7,77.1,102.7,77.1s9.2,38.7-8.4,74.2c-17.6,35.5-33.1,56.7-44.5,82.7
					c-10.5,24-14.1,39.3-14,51.5s13.8,14.9,13.8,14.9c0.1,0,0.2,0,0.3-0.1c5.7-0.4,11.8-4.5,15.1-13.7c7.2-20,10.1-34.3,24.2-58.8
					c14-24.5,47.4-64.2,49.2-114.6C658.3,387.9,642.5,338.6,587.3,309.1z"/>
			</g>
			<g>
				<path class="st1" d="M569.7,640.9h-53.4c0,0-46.3,0-49.8,0s-12.5,5.4-9.3,15.8c3.3,10.4,10.7,8.1,10.7,8.1s95.8,0,101.8,0
					c6,0,9-3.6,8.4-13.1C577.5,642.1,569.7,640.9,569.7,640.9z"/>
			</g>
			<g>
				<path class="st1" d="M568.2,682.1h-51.8c0,0-44.9,0-48.3,0s-12.2,5.4-9,15.8c3.2,10.4,10.4,8.1,10.4,8.1s92.9,0,98.7,0
					c5.8,0,8.7-3.6,8.1-13.1C575.7,683.2,568.2,682.1,568.2,682.1z"/>
			</g>
			<g>
				<path class="st1" d="M472.7,723.2c0,0,17.3,26.3,45.1,26.3c27.8,0,44.8-26.3,44.8-26.3h-44.8H472.7z"/>
			</g>
		</g>
	</g>
</g>
<g>
</g>
<g>
</g>
<g>
</g>
<g>
</g>
<g>
</g>
<g>
</g>
<g>
</g>
<g>
</g>
<g>
</g>
<g>
</g>
<g>
</g>
<g>
</g>
<g>
</g>
<g>
</g>
<g>
</g>
</svg>
